<svg width="25" height="25" viewBox="0 0 25 25" fill="none" xmlns="http://www.w3.org/2000/svg">
<path fill-rule="evenodd" clip-rule="evenodd" d="M9.4706 17.9999H13.9936C15.5508 17.9999 16.5395 17.0486 16.5395 15.5641C16.5395 13.7938 15.1145 13.299 13.5937 13.299H9.4706V17.9999ZM9.4706 11.7764H13.082C15.133 11.7764 15.9699 11.0344 15.9699 9.60654C15.9699 7.72209 14.6405 7.45616 13.082 7.45616H9.4706V11.7764ZM7.66663 5.93335H12.5868C13.7845 5.93335 15.3612 5.93335 16.178 6.42821C17.0711 6.96105 17.7734 7.93177 17.7734 9.26439C17.7734 10.7107 17.0145 11.7957 15.7601 12.309V12.3473C17.4329 12.6897 18.344 13.946 18.344 15.6213C18.344 17.619 16.9187 19.5227 14.2214 19.5227H7.66663V5.93335Z" fill="#7F7F7F"/>
<mask id="mask0_1:164" style="mask-type:alpha" maskUnits="userSpaceOnUse" x="0" y="0" width="25" height="25">
<path d="M0.733276 0.85144H24.883V25H0.733276V0.85144Z" fill="white"/>
</mask>
<g mask="url(#mask0_1:164)">
<path fill-rule="evenodd" clip-rule="evenodd" d="M12.8069 0.851318C6.13937 0.851318 0.733154 6.25728 0.733154 12.9259C0.733154 19.5937 6.13937 25.0002 12.8069 25.0002C19.4768 25.0002 24.883 19.5937 24.883 12.9259C24.883 6.25728 19.4768 0.851318 12.8069 0.851318ZM23.2906 12.9316C23.2906 18.7211 18.5979 23.4146 12.8069 23.4146C7.01797 23.4146 2.32525 18.7211 2.32525 12.9316C2.32525 7.14264 7.01797 2.45017 12.8069 2.45017C18.5979 2.45017 23.2906 7.14264 23.2906 12.9316Z" fill="#7F7F7F"/>
</g>
</svg>
